<mxfile host="app.diagrams.net" modified="2023-09-14T08:03:05.265Z" agent="Mozilla/5.0 (Windows NT 10.0; Win64; x64) AppleWebKit/537.36 (KHTML, like Gecko) Chrome/116.0.0.0 Safari/537.36 Edg/116.0.1938.76" etag="EoSkq1hxjW_r8GtAlHBa" version="21.7.4" type="github">
  <diagram name="第 1 页" id="40ob3O93FP1OyZtisrhl">
    <mxGraphModel dx="998" dy="543" grid="1" gridSize="10" guides="1" tooltips="1" connect="1" arrows="1" fold="1" page="1" pageScale="1" pageWidth="827" pageHeight="1169" math="0" shadow="0">
      <root>
        <mxCell id="0" />
        <mxCell id="1" parent="0" />
        <mxCell id="-XqggDbi9m9IinQTaMZ_-6" style="edgeStyle=orthogonalEdgeStyle;rounded=0;orthogonalLoop=1;jettySize=auto;html=1;exitX=1;exitY=0.5;exitDx=0;exitDy=0;entryX=0;entryY=0.5;entryDx=0;entryDy=0;" edge="1" parent="1" source="-XqggDbi9m9IinQTaMZ_-1" target="-XqggDbi9m9IinQTaMZ_-3">
          <mxGeometry relative="1" as="geometry" />
        </mxCell>
        <mxCell id="-XqggDbi9m9IinQTaMZ_-1" value="浏览器" style="rounded=1;whiteSpace=wrap;html=1;" vertex="1" parent="1">
          <mxGeometry x="30" y="360" width="120" height="60" as="geometry" />
        </mxCell>
        <mxCell id="-XqggDbi9m9IinQTaMZ_-9" style="edgeStyle=orthogonalEdgeStyle;rounded=0;orthogonalLoop=1;jettySize=auto;html=1;" edge="1" parent="1" source="-XqggDbi9m9IinQTaMZ_-3" target="-XqggDbi9m9IinQTaMZ_-8">
          <mxGeometry relative="1" as="geometry" />
        </mxCell>
        <mxCell id="-XqggDbi9m9IinQTaMZ_-31" style="edgeStyle=orthogonalEdgeStyle;rounded=0;orthogonalLoop=1;jettySize=auto;html=1;entryX=0.5;entryY=1;entryDx=0;entryDy=0;" edge="1" parent="1" source="-XqggDbi9m9IinQTaMZ_-3" target="-XqggDbi9m9IinQTaMZ_-32">
          <mxGeometry relative="1" as="geometry">
            <mxPoint x="330" y="280" as="targetPoint" />
          </mxGeometry>
        </mxCell>
        <mxCell id="-XqggDbi9m9IinQTaMZ_-54" style="edgeStyle=orthogonalEdgeStyle;rounded=0;orthogonalLoop=1;jettySize=auto;html=1;entryX=0.5;entryY=0;entryDx=0;entryDy=0;" edge="1" parent="1" source="-XqggDbi9m9IinQTaMZ_-3" target="-XqggDbi9m9IinQTaMZ_-14">
          <mxGeometry relative="1" as="geometry" />
        </mxCell>
        <mxCell id="-XqggDbi9m9IinQTaMZ_-3" value="DispatcherServlet&lt;br&gt;前端控制器" style="rounded=1;whiteSpace=wrap;html=1;" vertex="1" parent="1">
          <mxGeometry x="270" y="360" width="120" height="60" as="geometry" />
        </mxCell>
        <mxCell id="-XqggDbi9m9IinQTaMZ_-7" value="Request（URL）" style="text;strokeColor=none;align=center;fillColor=none;html=1;verticalAlign=middle;whiteSpace=wrap;rounded=0;" vertex="1" parent="1">
          <mxGeometry x="180" y="360" width="60" height="30" as="geometry" />
        </mxCell>
        <mxCell id="-XqggDbi9m9IinQTaMZ_-15" style="rounded=0;orthogonalLoop=1;jettySize=auto;html=1;exitX=0.5;exitY=1;exitDx=0;exitDy=0;entryX=0.75;entryY=0;entryDx=0;entryDy=0;" edge="1" parent="1" source="-XqggDbi9m9IinQTaMZ_-8" target="-XqggDbi9m9IinQTaMZ_-13">
          <mxGeometry relative="1" as="geometry" />
        </mxCell>
        <mxCell id="-XqggDbi9m9IinQTaMZ_-8" value="根据URI获得HandlerMapping" style="rounded=1;whiteSpace=wrap;html=1;" vertex="1" parent="1">
          <mxGeometry x="490" y="360" width="120" height="60" as="geometry" />
        </mxCell>
        <mxCell id="-XqggDbi9m9IinQTaMZ_-11" value="URI" style="text;strokeColor=none;align=center;fillColor=none;html=1;verticalAlign=middle;whiteSpace=wrap;rounded=0;" vertex="1" parent="1">
          <mxGeometry x="400" y="360" width="60" height="30" as="geometry" />
        </mxCell>
        <mxCell id="-XqggDbi9m9IinQTaMZ_-53" style="edgeStyle=orthogonalEdgeStyle;rounded=0;orthogonalLoop=1;jettySize=auto;html=1;entryX=0.7;entryY=1.02;entryDx=0;entryDy=0;entryPerimeter=0;" edge="1" parent="1" source="-XqggDbi9m9IinQTaMZ_-13" target="-XqggDbi9m9IinQTaMZ_-3">
          <mxGeometry relative="1" as="geometry" />
        </mxCell>
        <mxCell id="-XqggDbi9m9IinQTaMZ_-13" value="Handler对象以及Handler对应的拦截器" style="rounded=1;whiteSpace=wrap;html=1;" vertex="1" parent="1">
          <mxGeometry x="370" y="500" width="120" height="60" as="geometry" />
        </mxCell>
        <mxCell id="-XqggDbi9m9IinQTaMZ_-18" value="" style="edgeStyle=orthogonalEdgeStyle;rounded=0;orthogonalLoop=1;jettySize=auto;html=1;" edge="1" parent="1" source="-XqggDbi9m9IinQTaMZ_-14" target="-XqggDbi9m9IinQTaMZ_-17">
          <mxGeometry relative="1" as="geometry" />
        </mxCell>
        <mxCell id="-XqggDbi9m9IinQTaMZ_-14" value="DispatcherServlet 根据获得的Handler，选择一个合适的HandlerAdapter" style="rounded=1;whiteSpace=wrap;html=1;" vertex="1" parent="1">
          <mxGeometry x="270" y="650" width="120" height="60" as="geometry" />
        </mxCell>
        <mxCell id="-XqggDbi9m9IinQTaMZ_-20" value="" style="edgeStyle=orthogonalEdgeStyle;rounded=0;orthogonalLoop=1;jettySize=auto;html=1;" edge="1" parent="1" source="-XqggDbi9m9IinQTaMZ_-17" target="-XqggDbi9m9IinQTaMZ_-19">
          <mxGeometry relative="1" as="geometry" />
        </mxCell>
        <mxCell id="-XqggDbi9m9IinQTaMZ_-17" value="preHandlerl拦截器方法" style="whiteSpace=wrap;html=1;rounded=1;" vertex="1" parent="1">
          <mxGeometry x="270" y="790" width="120" height="60" as="geometry" />
        </mxCell>
        <mxCell id="-XqggDbi9m9IinQTaMZ_-22" value="" style="edgeStyle=orthogonalEdgeStyle;rounded=0;orthogonalLoop=1;jettySize=auto;html=1;entryX=0.417;entryY=1;entryDx=0;entryDy=0;entryPerimeter=0;" edge="1" parent="1" source="-XqggDbi9m9IinQTaMZ_-19" target="-XqggDbi9m9IinQTaMZ_-28">
          <mxGeometry relative="1" as="geometry">
            <mxPoint x="100" y="960" as="targetPoint" />
          </mxGeometry>
        </mxCell>
        <mxCell id="-XqggDbi9m9IinQTaMZ_-19" value="Handler执行" style="whiteSpace=wrap;html=1;rounded=1;" vertex="1" parent="1">
          <mxGeometry x="270" y="930" width="120" height="60" as="geometry" />
        </mxCell>
        <mxCell id="-XqggDbi9m9IinQTaMZ_-30" style="edgeStyle=orthogonalEdgeStyle;rounded=0;orthogonalLoop=1;jettySize=auto;html=1;entryX=0;entryY=1;entryDx=0;entryDy=0;" edge="1" parent="1" source="-XqggDbi9m9IinQTaMZ_-27" target="-XqggDbi9m9IinQTaMZ_-3">
          <mxGeometry relative="1" as="geometry">
            <Array as="points">
              <mxPoint x="160" y="420" />
            </Array>
          </mxGeometry>
        </mxCell>
        <mxCell id="-XqggDbi9m9IinQTaMZ_-27" value="postHandler拦截器方法" style="rounded=1;whiteSpace=wrap;html=1;" vertex="1" parent="1">
          <mxGeometry x="90" y="740" width="120" height="60" as="geometry" />
        </mxCell>
        <mxCell id="-XqggDbi9m9IinQTaMZ_-29" style="edgeStyle=orthogonalEdgeStyle;rounded=0;orthogonalLoop=1;jettySize=auto;html=1;exitX=0.5;exitY=0;exitDx=0;exitDy=0;entryX=0.5;entryY=1;entryDx=0;entryDy=0;" edge="1" parent="1" source="-XqggDbi9m9IinQTaMZ_-28" target="-XqggDbi9m9IinQTaMZ_-27">
          <mxGeometry relative="1" as="geometry" />
        </mxCell>
        <mxCell id="-XqggDbi9m9IinQTaMZ_-28" value="ModelAndView" style="rounded=1;whiteSpace=wrap;html=1;" vertex="1" parent="1">
          <mxGeometry x="90" y="860" width="120" height="60" as="geometry" />
        </mxCell>
        <mxCell id="-XqggDbi9m9IinQTaMZ_-36" value="" style="edgeStyle=orthogonalEdgeStyle;rounded=0;orthogonalLoop=1;jettySize=auto;html=1;" edge="1" parent="1" source="-XqggDbi9m9IinQTaMZ_-32" target="-XqggDbi9m9IinQTaMZ_-35">
          <mxGeometry relative="1" as="geometry" />
        </mxCell>
        <mxCell id="-XqggDbi9m9IinQTaMZ_-32" value="视图解析器ViewResolver" style="rounded=1;whiteSpace=wrap;html=1;" vertex="1" parent="1">
          <mxGeometry x="270" y="200" width="120" height="60" as="geometry" />
        </mxCell>
        <mxCell id="-XqggDbi9m9IinQTaMZ_-33" value="ModelAndView" style="text;strokeColor=none;align=center;fillColor=none;html=1;verticalAlign=middle;whiteSpace=wrap;rounded=0;" vertex="1" parent="1">
          <mxGeometry x="340" y="300" width="60" height="30" as="geometry" />
        </mxCell>
        <mxCell id="-XqggDbi9m9IinQTaMZ_-34" style="edgeStyle=orthogonalEdgeStyle;rounded=0;orthogonalLoop=1;jettySize=auto;html=1;exitX=0.5;exitY=1;exitDx=0;exitDy=0;" edge="1" parent="1" source="-XqggDbi9m9IinQTaMZ_-33" target="-XqggDbi9m9IinQTaMZ_-33">
          <mxGeometry relative="1" as="geometry" />
        </mxCell>
        <mxCell id="-XqggDbi9m9IinQTaMZ_-37" style="edgeStyle=orthogonalEdgeStyle;rounded=0;orthogonalLoop=1;jettySize=auto;html=1;entryX=0.673;entryY=0.007;entryDx=0;entryDy=0;entryPerimeter=0;" edge="1" parent="1" source="-XqggDbi9m9IinQTaMZ_-35" target="-XqggDbi9m9IinQTaMZ_-1">
          <mxGeometry relative="1" as="geometry" />
        </mxCell>
        <mxCell id="-XqggDbi9m9IinQTaMZ_-35" value="afterCompletion拦截器方法" style="whiteSpace=wrap;html=1;rounded=1;" vertex="1" parent="1">
          <mxGeometry x="270" y="60" width="120" height="60" as="geometry" />
        </mxCell>
        <mxCell id="-XqggDbi9m9IinQTaMZ_-38" value="视图渲染完毕后" style="text;strokeColor=none;align=center;fillColor=none;html=1;verticalAlign=middle;whiteSpace=wrap;rounded=0;" vertex="1" parent="1">
          <mxGeometry x="110" y="170" width="60" height="30" as="geometry" />
        </mxCell>
        <mxCell id="-XqggDbi9m9IinQTaMZ_-39" value="1" style="text;strokeColor=none;align=center;fillColor=none;html=1;verticalAlign=middle;whiteSpace=wrap;rounded=0;" vertex="1" parent="1">
          <mxGeometry x="180" y="390" width="60" height="30" as="geometry" />
        </mxCell>
        <mxCell id="-XqggDbi9m9IinQTaMZ_-41" value="2" style="text;strokeColor=none;align=center;fillColor=none;html=1;verticalAlign=middle;whiteSpace=wrap;rounded=0;" vertex="1" parent="1">
          <mxGeometry x="400" y="390" width="60" height="30" as="geometry" />
        </mxCell>
        <mxCell id="-XqggDbi9m9IinQTaMZ_-42" value="3" style="text;strokeColor=none;align=center;fillColor=none;html=1;verticalAlign=middle;whiteSpace=wrap;rounded=0;" vertex="1" parent="1">
          <mxGeometry x="500" y="440" width="60" height="30" as="geometry" />
        </mxCell>
        <mxCell id="-XqggDbi9m9IinQTaMZ_-44" value="5" style="text;strokeColor=none;align=center;fillColor=none;html=1;verticalAlign=middle;whiteSpace=wrap;rounded=0;" vertex="1" parent="1">
          <mxGeometry x="320" y="730" width="60" height="30" as="geometry" />
        </mxCell>
        <mxCell id="-XqggDbi9m9IinQTaMZ_-45" value="6" style="text;strokeColor=none;align=center;fillColor=none;html=1;verticalAlign=middle;whiteSpace=wrap;rounded=0;" vertex="1" parent="1">
          <mxGeometry x="330" y="875" width="60" height="30" as="geometry" />
        </mxCell>
        <mxCell id="-XqggDbi9m9IinQTaMZ_-46" value="7" style="text;strokeColor=none;align=center;fillColor=none;html=1;verticalAlign=middle;whiteSpace=wrap;rounded=0;" vertex="1" parent="1">
          <mxGeometry x="180" y="960" width="60" height="30" as="geometry" />
        </mxCell>
        <mxCell id="-XqggDbi9m9IinQTaMZ_-47" value="8" style="text;strokeColor=none;align=center;fillColor=none;html=1;verticalAlign=middle;whiteSpace=wrap;rounded=0;" vertex="1" parent="1">
          <mxGeometry x="80" y="820" width="60" height="30" as="geometry" />
        </mxCell>
        <mxCell id="-XqggDbi9m9IinQTaMZ_-48" value="9" style="text;strokeColor=none;align=center;fillColor=none;html=1;verticalAlign=middle;whiteSpace=wrap;rounded=0;" vertex="1" parent="1">
          <mxGeometry x="120" y="600" width="60" height="30" as="geometry" />
        </mxCell>
        <mxCell id="-XqggDbi9m9IinQTaMZ_-49" value="10" style="text;strokeColor=none;align=center;fillColor=none;html=1;verticalAlign=middle;whiteSpace=wrap;rounded=0;" vertex="1" parent="1">
          <mxGeometry x="240" y="300" width="90" height="30" as="geometry" />
        </mxCell>
        <mxCell id="-XqggDbi9m9IinQTaMZ_-50" value="11" style="text;strokeColor=none;align=center;fillColor=none;html=1;verticalAlign=middle;whiteSpace=wrap;rounded=0;" vertex="1" parent="1">
          <mxGeometry x="280" y="150" width="60" height="30" as="geometry" />
        </mxCell>
        <mxCell id="-XqggDbi9m9IinQTaMZ_-51" value="12" style="text;strokeColor=none;align=center;fillColor=none;html=1;verticalAlign=middle;whiteSpace=wrap;rounded=0;" vertex="1" parent="1">
          <mxGeometry x="160" y="90" width="60" height="30" as="geometry" />
        </mxCell>
        <mxCell id="-XqggDbi9m9IinQTaMZ_-55" value="4-1" style="text;strokeColor=none;align=center;fillColor=none;html=1;verticalAlign=middle;whiteSpace=wrap;rounded=0;" vertex="1" parent="1">
          <mxGeometry x="400" y="440" width="60" height="30" as="geometry" />
        </mxCell>
        <mxCell id="-XqggDbi9m9IinQTaMZ_-56" value="4-2" style="text;strokeColor=none;align=center;fillColor=none;html=1;verticalAlign=middle;whiteSpace=wrap;rounded=0;" vertex="1" parent="1">
          <mxGeometry x="270" y="520" width="60" height="30" as="geometry" />
        </mxCell>
        <mxCell id="-XqggDbi9m9IinQTaMZ_-57" value="视图传递给前端控制器" style="text;strokeColor=none;align=center;fillColor=none;html=1;verticalAlign=middle;whiteSpace=wrap;rounded=0;" vertex="1" parent="1">
          <mxGeometry x="90" y="550" width="60" height="30" as="geometry" />
        </mxCell>
      </root>
    </mxGraphModel>
  </diagram>
</mxfile>
